# xmcd
#
# Track frame offsets:
#	150
#	14542
#	30797
#	48029
#	70724
#	93313
#	115664
#	128215
#	143142
#	162733
#	180961
#	202768
#
# Disc length: 3098 seconds
#
# Revision: 1
# Processed by: cddbd v1.5.1PL0 Copyright (c) Steve Scherf et al.
# Submitted via: audiograbber 1.83.01
#
DISCID=8e0c180c
DTITLE=Andy Piercy And Dave Clifton - Praise God
DYEAR=2001
DGENRE=Christian Rock
TTITLE0=Praise God From Whom All Blessings Flow
TTITLE1=my beloved one
TTITLE2=every Valley
TTITLE3=The Lord Hase Done Great Things for us
TTITLE4=You have serched me
TTITLE5=Precious in Your eyes
TTITLE6=We worship and adore You
TTITLE7=God is our Refuge and Our Strength
TTITLE8=We want to Remain in Your Love
TTITLE9=We do Not Presume
TTITLE10=Hold to Every Promise
TTITLE11=We Have a Great Priest
EXTD=
EXTT0=
EXTT1=
EXTT2=
EXTT3=
EXTT4=
EXTT5=
EXTT6=
EXTT7=
EXTT8=
EXTT9=
EXTT10=
EXTT11=
PLAYORDER=
